<svg width="125" height="48" viewBox="0 0 125 48" fill="none" xmlns="http://www.w3.org/2000/svg">
<g clip-path="url(#clip0_393_5714)">
<rect width="24" height="24" transform="translate(0.300049)" fill="white"/>
<path d="M4.30005 19V10C4.30005 9.68333 4.37105 9.38333 4.51305 9.1C4.65505 8.81667 4.85072 8.58333 5.10005 8.4L11.1 3.9C11.45 3.63333 11.85 3.5 12.3 3.5C12.75 3.5 13.15 3.63333 13.5 3.9L19.5 8.4C19.75 8.58333 19.946 8.81667 20.088 9.1C20.23 9.38333 20.3007 9.68333 20.3 10V19C20.3 19.55 20.104 20.021 19.712 20.413C19.32 20.805 18.8494 21.0007 18.3 21H15.3C15.0167 21 14.7794 20.904 14.588 20.712C14.3967 20.52 14.3007 20.2827 14.3 20V15C14.3 14.7167 14.204 14.4793 14.012 14.288C13.82 14.0967 13.5827 14.0007 13.3 14H11.3C11.0167 14 10.7794 14.096 10.588 14.288C10.3967 14.48 10.3007 14.7173 10.3 15V20C10.3 20.2833 10.204 20.521 10.012 20.713C9.82005 20.905 9.58272 21.0007 9.30005 21H6.30005C5.75005 21 5.27938 20.8043 4.88805 20.413C4.49672 20.0217 4.30072 19.5507 4.30005 19Z" fill="#0047AB"/>
</g>
<g clip-path="url(#clip1_393_5714)">
<rect width="24" height="24" transform="translate(24.9001)" fill="white"/>
<path d="M34.4001 16C32.5835 16 31.0461 15.3707 29.7881 14.112C28.5301 12.8533 27.9008 11.316 27.9001 9.5C27.8995 7.684 28.5288 6.14667 29.7881 4.888C31.0475 3.62933 32.5848 3 34.4001 3C36.2155 3 37.7531 3.62933 39.0131 4.888C40.2731 6.14667 40.9021 7.684 40.9001 9.5C40.9001 10.2333 40.7835 10.925 40.5501 11.575C40.3168 12.225 40.0001 12.8 39.6001 13.3L45.2001 18.9C45.3835 19.0833 45.4751 19.3167 45.4751 19.6C45.4751 19.8833 45.3835 20.1167 45.2001 20.3C45.0168 20.4833 44.7835 20.575 44.5001 20.575C44.2168 20.575 43.9835 20.4833 43.8001 20.3L38.2001 14.7C37.7001 15.1 37.1251 15.4167 36.4751 15.65C35.8251 15.8833 35.1335 16 34.4001 16ZM34.4001 14C35.6501 14 36.7128 13.5627 37.5881 12.688C38.4635 11.8133 38.9008 10.7507 38.9001 9.5C38.8995 8.24933 38.4621 7.187 37.5881 6.313C36.7141 5.439 35.6515 5.00133 34.4001 5C33.1488 4.99867 32.0865 5.43633 31.2131 6.313C30.3398 7.18967 29.9021 8.252 29.9001 9.5C29.8981 10.748 30.3358 11.8107 31.2131 12.688C32.0905 13.5653 33.1528 14.0027 34.4001 14Z" fill="#0047AB"/>
</g>
<g clip-path="url(#clip2_393_5714)">
<rect width="24" height="24" transform="translate(49.5)" fill="white"/>
<path d="M59.5 4H53.5C52.39 4 51.5 4.89 51.5 6V18C51.5 18.5304 51.7107 19.0391 52.0858 19.4142C52.4609 19.7893 52.9696 20 53.5 20H69.5C70.0304 20 70.5391 19.7893 70.9142 19.4142C71.2893 19.0391 71.5 18.5304 71.5 18V8C71.5 7.46957 71.2893 6.96086 70.9142 6.58579C70.5391 6.21071 70.0304 6 69.5 6H61.5L59.5 4Z" fill="#0047AB"/>
</g>
<g clip-path="url(#clip3_393_5714)">
<rect width="24" height="24" transform="translate(74.1001)" fill="white"/>
<path d="M86.1001 21.35L84.6501 20.03C79.5001 15.36 76.1001 12.27 76.1001 8.5C76.1001 5.41 78.5201 3 81.6001 3C83.3401 3 85.0101 3.81 86.1001 5.08C87.1901 3.81 88.8601 3 90.6001 3C93.6801 3 96.1001 5.41 96.1001 8.5C96.1001 12.27 92.7001 15.36 87.5501 20.03L86.1001 21.35Z" fill="#0047AB"/>
</g>
<g clip-path="url(#clip4_393_5714)">
<rect width="24" height="24" transform="translate(98.6997)" fill="white"/>
<path d="M104.7 21V19C104.7 17.9391 105.121 16.9217 105.871 16.1716C106.621 15.4214 107.639 15 108.7 15H112.7C113.761 15 114.778 15.4214 115.528 16.1716C116.278 16.9217 116.7 17.9391 116.7 19V21M106.7 7C106.7 8.06087 107.121 9.07828 107.871 9.82843C108.621 10.5786 109.639 11 110.7 11C111.761 11 112.778 10.5786 113.528 9.82843C114.278 9.07828 114.7 8.06087 114.7 7C114.7 5.93913 114.278 4.92172 113.528 4.17157C112.778 3.42143 111.761 3 110.7 3C109.639 3 108.621 3.42143 107.871 4.17157C107.121 4.92172 106.7 5.93913 106.7 7Z" stroke="#0047AB" stroke-width="2" stroke-linecap="round" stroke-linejoin="round"/>
</g>
<g clip-path="url(#clip5_393_5714)">
<rect width="24" height="24" transform="translate(0.300049 24)" fill="white"/>
<path d="M4.30005 43V34C4.30005 33.6833 4.37105 33.3833 4.51305 33.1C4.65505 32.8167 4.85072 32.5833 5.10005 32.4L11.1 27.9C11.45 27.6333 11.85 27.5 12.3 27.5C12.75 27.5 13.15 27.6333 13.5 27.9L19.5 32.4C19.75 32.5833 19.946 32.8167 20.088 33.1C20.23 33.3833 20.3007 33.6833 20.3 34V43C20.3 43.55 20.104 44.021 19.712 44.413C19.32 44.805 18.8494 45.0007 18.3 45H15.3C15.0167 45 14.7794 44.904 14.588 44.712C14.3967 44.52 14.3007 44.2827 14.3 44V39C14.3 38.7167 14.204 38.4793 14.012 38.288C13.82 38.0967 13.5827 38.0007 13.3 38H11.3C11.0167 38 10.7794 38.096 10.588 38.288C10.3967 38.48 10.3007 38.7173 10.3 39V44C10.3 44.2833 10.204 44.521 10.012 44.713C9.82005 44.905 9.58272 45.0007 9.30005 45H6.30005C5.75005 45 5.27938 44.8043 4.88805 44.413C4.49672 44.0217 4.30072 43.5507 4.30005 43Z" fill="#888888"/>
</g>
<g clip-path="url(#clip6_393_5714)">
<rect width="24" height="24" transform="translate(24.9001 24)" fill="white"/>
<path d="M34.4001 40C32.5835 40 31.0461 39.3707 29.7881 38.112C28.5301 36.8533 27.9008 35.316 27.9001 33.5C27.8995 31.684 28.5288 30.1467 29.7881 28.888C31.0475 27.6293 32.5848 27 34.4001 27C36.2155 27 37.7531 27.6293 39.0131 28.888C40.2731 30.1467 40.9021 31.684 40.9001 33.5C40.9001 34.2333 40.7835 34.925 40.5501 35.575C40.3168 36.225 40.0001 36.8 39.6001 37.3L45.2001 42.9C45.3835 43.0833 45.4751 43.3167 45.4751 43.6C45.4751 43.8833 45.3835 44.1167 45.2001 44.3C45.0168 44.4833 44.7835 44.575 44.5001 44.575C44.2168 44.575 43.9835 44.4833 43.8001 44.3L38.2001 38.7C37.7001 39.1 37.1251 39.4167 36.4751 39.65C35.8251 39.8833 35.1335 40 34.4001 40ZM34.4001 38C35.6501 38 36.7128 37.5627 37.5881 36.688C38.4635 35.8133 38.9008 34.7507 38.9001 33.5C38.8995 32.2493 38.4621 31.187 37.5881 30.313C36.7141 29.439 35.6515 29.0013 34.4001 29C33.1488 28.9987 32.0865 29.4363 31.2131 30.313C30.3398 31.1897 29.9021 32.252 29.9001 33.5C29.8981 34.748 30.3358 35.8107 31.2131 36.688C32.0905 37.5653 33.1528 38.0027 34.4001 38Z" fill="#888888"/>
</g>
<g clip-path="url(#clip7_393_5714)">
<rect width="24" height="24" transform="translate(49.5 24)" fill="white"/>
<path d="M59.5 28H53.5C52.39 28 51.5 28.89 51.5 30V42C51.5 42.5304 51.7107 43.0391 52.0858 43.4142C52.4609 43.7893 52.9696 44 53.5 44H69.5C70.0304 44 70.5391 43.7893 70.9142 43.4142C71.2893 43.0391 71.5 42.5304 71.5 42V32C71.5 31.4696 71.2893 30.9609 70.9142 30.5858C70.5391 30.2107 70.0304 30 69.5 30H61.5L59.5 28Z" fill="#888888"/>
</g>
<g clip-path="url(#clip8_393_5714)">
<rect width="24" height="24" transform="translate(74.1001 24)" fill="white"/>
<path d="M86.1001 45.35L84.6501 44.03C79.5001 39.36 76.1001 36.27 76.1001 32.5C76.1001 29.41 78.5201 27 81.6001 27C83.3401 27 85.0101 27.81 86.1001 29.08C87.1901 27.81 88.8601 27 90.6001 27C93.6801 27 96.1001 29.41 96.1001 32.5C96.1001 36.27 92.7001 39.36 87.5501 44.03L86.1001 45.35Z" fill="#888888"/>
</g>
<g clip-path="url(#clip9_393_5714)">
<rect width="24" height="24" transform="translate(98.6997 24)" fill="white"/>
<path d="M104.7 45V43C104.7 41.9391 105.121 40.9217 105.871 40.1716C106.621 39.4214 107.639 39 108.7 39H112.7C113.761 39 114.778 39.4214 115.528 40.1716C116.278 40.9217 116.7 41.9391 116.7 43V45M106.7 31C106.7 32.0609 107.121 33.0783 107.871 33.8284C108.621 34.5786 109.639 35 110.7 35C111.761 35 112.778 34.5786 113.528 33.8284C114.278 33.0783 114.7 32.0609 114.7 31C114.7 29.9391 114.278 28.9217 113.528 28.1716C112.778 27.4214 111.761 27 110.7 27C109.639 27 108.621 27.4214 107.871 28.1716C107.121 28.9217 106.7 29.9391 106.7 31Z" stroke="#888888" stroke-width="2" stroke-linecap="round" stroke-linejoin="round"/>
</g>
<defs>
<clipPath id="clip0_393_5714">
<rect width="24" height="24" fill="white" transform="translate(0.300049)"/>
</clipPath>
<clipPath id="clip1_393_5714">
<rect width="24" height="24" fill="white" transform="translate(24.9001)"/>
</clipPath>
<clipPath id="clip2_393_5714">
<rect width="24" height="24" fill="white" transform="translate(49.5)"/>
</clipPath>
<clipPath id="clip3_393_5714">
<rect width="24" height="24" fill="white" transform="translate(74.1001)"/>
</clipPath>
<clipPath id="clip4_393_5714">
<rect width="24" height="24" fill="white" transform="translate(98.6997)"/>
</clipPath>
<clipPath id="clip5_393_5714">
<rect width="24" height="24" fill="white" transform="translate(0.300049 24)"/>
</clipPath>
<clipPath id="clip6_393_5714">
<rect width="24" height="24" fill="white" transform="translate(24.9001 24)"/>
</clipPath>
<clipPath id="clip7_393_5714">
<rect width="24" height="24" fill="white" transform="translate(49.5 24)"/>
</clipPath>
<clipPath id="clip8_393_5714">
<rect width="24" height="24" fill="white" transform="translate(74.1001 24)"/>
</clipPath>
<clipPath id="clip9_393_5714">
<rect width="24" height="24" fill="white" transform="translate(98.6997 24)"/>
</clipPath>
</defs>
</svg>
